<svg xmlns="http://www.w3.org/2000/svg" width="100" height="67" viewBox="0 0 100 67" fill="none"><g id="Logos" clip-path="url(#clip0_0_148)"><g id="Group"><path id="Vector" d="M6.26472 53.348V51.6254H3.73597V53.348H2.57031V49.6709C2.57031 46.3796 7.42956 46.3796 7.42956 49.6709V53.348H6.2639H6.26472ZM6.26472 50.4598V49.6709C6.26472 47.7344 3.73597 47.7344 3.73597 49.6709V50.4598H6.26472Z" fill="#0E4866"></path><path id="Vector_2" d="M8.20898 52.1915H9.58935C9.91511 52.1915 10.0517 52.0459 10.0517 51.883C10.0517 51.7201 9.90606 51.5745 9.6494 51.4717L9.16076 51.2833C8.51747 51.0349 8.26081 50.5462 8.26904 49.9893C8.27726 49.3468 8.85228 48.6353 9.7004 48.6353H11.3629V49.7919H10.0344C9.82873 49.7919 9.65763 49.9375 9.65763 50.1176C9.65763 50.2632 9.73495 50.3916 9.98339 50.4779L10.5576 50.6918C11.2001 50.923 11.483 51.4634 11.483 52.0459C11.4913 52.6719 10.9862 53.3489 9.87151 53.3489H8.20898V52.1923V52.1915Z" fill="#0E4866"></path><path id="Vector_3" d="M14.5333 48.5061C15.8964 48.5061 17.0275 49.6117 17.0275 50.9913C17.0275 52.3708 15.8964 53.4855 14.5333 53.4855C13.1702 53.4855 12.0391 52.3716 12.0391 50.9913C12.0391 49.6109 13.1619 48.5061 14.5333 48.5061ZM15.8618 50.9913C15.8618 50.1769 15.3386 49.6709 14.5333 49.6709C13.7279 49.6709 13.2047 50.1769 13.2047 50.9913C13.2047 51.8057 13.7189 52.3198 14.5333 52.3198C15.3477 52.3198 15.8618 51.8139 15.8618 50.9913Z" fill="#0E4866"></path><path id="Vector_4" d="M20.0171 53.4854C18.6458 53.4854 17.5146 52.3625 17.5146 50.983C17.5146 49.6034 18.6458 48.4978 20.0171 48.4978C20.4457 48.4978 20.8652 48.6179 21.2255 48.8145L20.6768 49.8263C20.4539 49.7062 20.2746 49.6635 20.0171 49.6635C19.2027 49.6635 18.6803 50.1694 18.6803 50.983C18.6803 51.7965 19.2035 52.3197 20.0171 52.3197C20.2746 52.3197 20.4539 52.2769 20.6768 52.1568L21.2255 53.1678C20.8652 53.3653 20.4457 53.4846 20.0171 53.4846V53.4854Z" fill="#0E4866"></path><path id="Vector_5" d="M21.876 47.6571C21.876 47.3058 22.159 47.0228 22.5275 47.0228C22.896 47.0228 23.17 47.3058 23.17 47.6571C23.17 48.0256 22.8788 48.3086 22.5275 48.3086C22.159 48.3086 21.876 48.0256 21.876 47.6571ZM21.9451 48.6344H23.1107V53.348H21.9451V48.6344Z" fill="#0E4866"></path><path id="Vector_6" d="M23.7617 50.983C23.7617 49.6116 24.8673 48.4978 26.2469 48.4978C27.6264 48.4978 28.732 49.6116 28.732 50.983V53.3488H27.7037V52.9202C27.2752 53.2369 26.752 53.4171 26.2469 53.4171C24.8665 53.4171 23.7617 52.3715 23.7617 50.983ZM26.2469 52.3279C27.0613 52.3279 27.5754 51.8138 27.5754 50.9821C27.5754 50.1505 27.0613 49.6536 26.2469 49.6536C25.4325 49.6536 24.9183 50.1677 24.9183 50.9821C24.9183 51.7965 25.4325 52.3279 26.2469 52.3279Z" fill="#0E4866"></path><path id="Vector_7" d="M31.7915 53.4854C30.4202 53.4854 29.2891 52.3625 29.2891 50.983C29.2891 49.6034 30.4202 48.4978 31.7915 48.4978C32.2201 48.4978 32.6396 48.6179 32.9999 48.8145L32.4512 49.8263C32.2283 49.7062 32.049 49.6635 31.7915 49.6635C30.9771 49.6635 30.4547 50.1694 30.4547 50.983C30.4547 51.7965 30.9779 52.3197 31.7915 52.3197C32.049 52.3197 32.2283 52.2769 32.4512 52.1568L32.9999 53.1678C32.6396 53.3653 32.2201 53.4846 31.7915 53.4846V53.4854Z" fill="#0E4866"></path><path id="Vector_8" d="M33.6504 47.6571C33.6504 47.3058 33.9334 47.0228 34.3019 47.0228C34.6704 47.0228 34.9444 47.3058 34.9444 47.6571C34.9444 48.0256 34.6532 48.3086 34.3019 48.3086C33.9334 48.3086 33.6504 48.0256 33.6504 47.6571ZM33.7187 48.6344H34.8843V53.348H33.7187V48.6344Z" fill="#0E4866"></path><path id="Vector_9" d="M38.0294 48.5061C39.3916 48.5061 40.5236 49.6117 40.5236 50.9912C40.5236 52.3708 39.3924 53.4854 38.0294 53.4854C36.6663 53.4854 35.5352 52.3716 35.5352 50.9912C35.5352 49.6109 36.658 48.5061 38.0294 48.5061ZM39.3579 50.9912C39.3579 50.1768 38.8347 49.6709 38.0294 49.6709C37.224 49.6709 36.7008 50.1768 36.7008 50.9912C36.7008 51.8056 37.215 52.3198 38.0294 52.3198C38.8438 52.3198 39.3579 51.8139 39.3579 50.9912ZM38.1922 46.3977L39.0066 47.0147L37.7982 48.2577L37.1895 47.7953L38.1922 46.3985V46.3977Z" fill="#0E4866"></path><path id="Vector_10" d="M44.7128 53.348V50.9311C44.7128 49.0539 42.2614 49.0539 42.2614 50.9311V53.348H41.0957V50.9311C41.0957 47.6999 45.8784 47.6999 45.8784 50.9311V53.348H44.7128Z" fill="#0E4866"></path><path id="Vector_11" d="M48.2002 50.3488C48.2002 48.6262 49.597 47.2294 51.3286 47.2294C51.8856 47.2294 52.4079 47.3667 52.8628 47.6234L52.2886 48.6344C51.9802 48.4543 51.7062 48.3778 51.3286 48.3778C50.1539 48.3778 49.3576 49.1839 49.3576 50.3488C49.3576 51.5136 50.1548 52.3198 51.3286 52.3198C51.7054 52.3198 51.9802 52.2425 52.2886 52.0631L52.8628 53.0749C52.4087 53.3316 51.8856 53.4772 51.3286 53.4772C49.597 53.4772 48.2002 52.0713 48.2002 50.3488Z" fill="#0E4866"></path><path id="Vector_12" d="M55.7159 48.5061C57.079 48.5061 58.2101 49.6117 58.2101 50.9913C58.2101 52.3708 57.079 53.4855 55.7159 53.4855C54.3528 53.4855 53.2217 52.3716 53.2217 50.9913C53.2217 49.6109 54.3446 48.5061 55.7159 48.5061ZM57.0444 50.9913C57.0444 50.1769 56.5212 49.6709 55.7159 49.6709C54.9105 49.6709 54.3873 50.1769 54.3873 50.9913C54.3873 51.8057 54.9015 52.3198 55.7159 52.3198C56.5303 52.3198 57.0444 51.8139 57.0444 50.9913Z" fill="#0E4866"></path><path id="Vector_13" d="M59.9821 47.3486V53.348H58.8164V47.3486H59.9821Z" fill="#0E4866"></path><path id="Vector_14" d="M63.0762 48.5061C64.4393 48.5061 65.5704 49.6117 65.5704 50.9913C65.5704 52.3708 64.4393 53.4855 63.0762 53.4855C61.7131 53.4855 60.582 52.3716 60.582 50.9913C60.582 49.6109 61.7049 48.5061 63.0762 48.5061ZM64.4048 50.9913C64.4048 50.1769 63.8816 49.6709 63.0762 49.6709C62.2709 49.6709 61.7477 50.1769 61.7477 50.9913C61.7477 51.8057 62.2618 52.3198 63.0762 52.3198C63.8906 52.3198 64.4048 51.8139 64.4048 50.9913Z" fill="#0E4866"></path><path id="Vector_15" d="M69.22 53.348V50.76C69.22 49.0802 67.3082 49.0802 67.3082 50.76V53.348H66.1426V50.76C66.1426 48.4287 68.6368 47.8891 69.8024 49.1312C70.9681 47.8882 73.4705 48.4287 73.4705 50.76V53.348H72.3049V50.76C72.3049 49.0802 70.3849 49.0802 70.3849 50.76V53.348H69.2192H69.22Z" fill="#0E4866"></path><path id="Vector_16" d="M74.1211 50.9312V47.3486H75.2777V48.9083C75.6808 48.6517 76.1522 48.497 76.6062 48.497C77.9866 48.497 79.0914 49.5508 79.0914 50.9312C79.0914 52.3115 77.9858 53.4163 76.6062 53.4163C75.2267 53.4163 74.1211 52.3025 74.1211 50.9312ZM76.6062 52.2597C77.4289 52.2597 77.9348 51.7456 77.9348 50.9312C77.9348 50.1168 77.4289 49.5944 76.6062 49.5944C75.7836 49.5944 75.2777 50.1085 75.2777 50.9312C75.2777 51.7538 75.8009 52.2597 76.6062 52.2597Z" fill="#0E4866"></path><path id="Vector_17" d="M79.708 47.6571C79.708 47.3058 79.991 47.0228 80.3595 47.0228C80.7281 47.0228 81.002 47.3058 81.002 47.6571C81.002 48.0256 80.7108 48.3086 80.3595 48.3086C79.991 48.3086 79.708 48.0256 79.708 47.6571ZM79.7763 48.6344H80.9419V53.348H79.7763V48.6344Z" fill="#0E4866"></path><path id="Vector_18" d="M81.5928 50.983C81.5928 49.6116 82.6984 48.4978 84.0779 48.4978C85.4575 48.4978 86.5631 49.6116 86.5631 50.983V53.3488H85.5348V52.9202C85.1062 53.2369 84.583 53.4171 84.0779 53.4171C82.6976 53.4171 81.5928 52.3715 81.5928 50.983ZM84.0788 52.3279C84.8931 52.3279 85.4073 51.8138 85.4073 50.9821C85.4073 50.1505 84.8931 49.6536 84.0788 49.6536C83.2644 49.6536 82.7502 50.1677 82.7502 50.9821C82.7502 51.7965 83.2644 52.3279 84.0788 52.3279Z" fill="#0E4866"></path><path id="Vector_19" d="M90.9081 53.348V50.9311C90.9081 49.0539 88.4567 49.0539 88.4567 50.9311V53.348H87.291V50.9311C87.291 47.6999 92.0738 47.6999 92.0738 50.9311V53.348H90.9081Z" fill="#0E4866"></path><path id="Vector_20" d="M92.6299 50.983C92.6299 49.6116 93.7355 48.4978 95.115 48.4978C96.4946 48.4978 97.6002 49.6116 97.6002 50.983V53.3488H96.5719V52.9202C96.1433 53.2369 95.6201 53.4171 95.115 53.4171C93.7347 53.4171 92.6299 52.3715 92.6299 50.983ZM95.115 52.3279C95.9294 52.3279 96.4436 51.8138 96.4436 50.9821C96.4436 50.1505 95.9294 49.6536 95.115 49.6536C94.3006 49.6536 93.7865 50.1677 93.7865 50.9821C93.7865 51.7965 94.3006 52.3279 95.115 52.3279Z" fill="#0E4866"></path><path id="Vector_21" d="M0 61.9256C0 60.5452 1.10561 59.4914 2.48515 59.4914C2.94829 59.4914 3.41061 59.6461 3.81369 59.9027V58.343H4.9703V61.9256C4.9703 63.2969 3.85565 64.4107 2.48515 64.4107C1.11466 64.4107 0 63.2969 0 61.9256ZM2.48515 63.2541C3.29955 63.2541 3.81369 62.74 3.81369 61.9256C3.81369 61.1112 3.29955 60.5888 2.48515 60.5888C1.67075 60.5888 1.15661 61.1029 1.15661 61.9256C1.15661 62.7482 1.67075 63.2541 2.48515 63.2541Z" fill="#0E4866"></path><path id="Vector_22" d="M6.25478 63.7427C5.2775 62.7654 5.29478 61.1884 6.26301 60.2202C7.23124 59.2511 9.00564 59.1401 10.1285 60.6652L7.49777 63.194C7.95186 63.4597 8.50877 63.3651 8.96369 62.9283L9.77809 63.7509C8.80986 64.7109 7.23288 64.7282 6.2556 63.7419L6.25478 63.7427ZM8.59515 60.7771C8.11556 60.4604 7.56687 60.5542 7.08646 61.0338C6.64059 61.4879 6.54681 62.0621 6.8117 62.5252L8.59433 60.7771H8.59515Z" fill="#0E4866"></path><path id="Vector_23" d="M12.4502 61.3431C12.4502 59.6206 13.847 58.2238 15.5786 58.2238C16.1356 58.2238 16.6579 58.3611 17.1128 58.6178L16.5386 59.6288C16.2302 59.4486 15.9562 59.3721 15.5786 59.3721C14.4039 59.3721 13.6076 60.1783 13.6076 61.3431C13.6076 62.508 14.4048 63.3142 15.5786 63.3142C15.9554 63.3142 16.2302 63.2368 16.5386 63.0575L17.1128 64.0693C16.6587 64.326 16.1356 64.4716 15.5786 64.4716C13.847 64.4716 12.4502 63.0657 12.4502 61.3431Z" fill="#0E4866"></path><path id="Vector_24" d="M17.7549 58.6516C17.7549 58.3003 18.0379 58.0173 18.4064 58.0173C18.7749 58.0173 19.0489 58.3003 19.0489 58.6516C19.0489 59.0201 18.7577 59.3031 18.4064 59.3031C18.0379 59.3031 17.7549 59.0201 17.7549 58.6516ZM17.8232 59.628H18.9888V64.3417H17.8232V59.628Z" fill="#0E4866"></path><path id="Vector_25" d="M19.6396 62.0284C19.6396 60.0912 21.0537 59.4915 22.1421 59.4915H22.4423V60.6571H22.1421C21.3622 60.6571 20.8053 60.8973 20.8053 62.0284V64.3425H19.6396V62.0284Z" fill="#0E4866"></path><path id="Vector_26" d="M24.1639 59.6279V62.2077C24.1639 63.0221 24.4896 63.296 24.9955 63.296C25.5442 63.296 25.8099 63.0385 25.8099 62.2077V59.6279H26.9756V62.2077C26.9756 63.6136 26.0929 64.4617 24.9964 64.4617C23.9763 64.4617 22.999 63.6308 22.999 62.2077V59.6279H24.1647H24.1639Z" fill="#0E4866"></path><path id="Vector_27" d="M27.5321 61.9766C27.5321 60.6053 28.6377 59.4915 30.0172 59.4915C31.3968 59.4915 32.4941 60.5971 32.5024 61.9684H32.5106V63.2541C32.5106 65.4308 31.1483 66.1679 29.485 66.1679V65.0022C30.4795 65.0022 31.0537 64.8048 31.2594 64.0595C30.8736 64.2824 30.445 64.4108 30.0164 64.4108C28.636 64.4108 27.5312 63.3652 27.5312 61.9766H27.5321ZM30.0172 63.3142C30.8316 63.3142 31.3458 62.8001 31.3458 61.9774C31.3458 61.1548 30.8316 60.6489 30.0172 60.6489C29.2028 60.6489 28.6887 61.163 28.6887 61.9774C28.6887 62.7918 29.2028 63.3142 30.0172 63.3142Z" fill="#0E4866"></path><path id="Vector_28" d="M34.0184 57.3831L34.8328 58L33.6244 59.243L33.0156 58.7799L34.0184 57.3831ZM33.2723 64.3425V59.6288H34.4379V64.3425H33.2723Z" fill="#0E4866"></path><path id="Vector_29" d="M35.0977 61.9766C35.0977 60.6053 36.2033 59.4915 37.5828 59.4915C38.9623 59.4915 40.068 60.6053 40.068 61.9766V64.3425H39.0397V63.9139C38.6111 64.2306 38.0879 64.4108 37.5828 64.4108C36.2024 64.4108 35.0977 63.3652 35.0977 61.9766ZM37.5828 63.3224C38.3972 63.3224 38.9113 62.8083 38.9113 61.9766C38.9113 61.1449 38.3972 60.6481 37.5828 60.6481C36.7684 60.6481 36.2543 61.1622 36.2543 61.9766C36.2543 62.791 36.7684 63.3224 37.5828 63.3224Z" fill="#0E4866"></path><path id="Vector_30" d="M42.3896 64.3424V58.343H44.781C47.1897 58.343 47.1897 62.3023 44.781 62.3023H43.5553V64.3424H42.3896ZM44.781 61.1375C45.8356 61.1375 45.8356 59.5087 44.781 59.5087H43.5553V61.1375H44.781Z" fill="#0E4866"></path><path id="Vector_31" d="M48.3375 58.343V64.3424H47.1719V58.343H48.3375Z" fill="#0E4866"></path><path id="Vector_32" d="M48.9375 61.9766C48.9375 60.6053 50.0431 59.4914 51.4226 59.4914C52.8022 59.4914 53.9078 60.6053 53.9078 61.9766V64.3425H52.8795V63.9139C52.4509 64.2306 51.9277 64.4107 51.4226 64.4107C50.0423 64.4107 48.9375 63.3652 48.9375 61.9766ZM51.4226 63.3224C52.237 63.3224 52.7512 62.8083 52.7512 61.9766C52.7512 61.1449 52.237 60.6481 51.4226 60.6481C50.6082 60.6481 50.0941 61.1622 50.0941 61.9766C50.0941 62.791 50.6082 63.3224 51.4226 63.3224ZM51.5864 57.3831L52.4008 58L51.1923 59.243L50.5836 58.7799L51.5864 57.3831Z" fill="#0E4866"></path><path id="Vector_33" d="M54.4648 63.185H55.8452C56.171 63.185 56.3075 63.0394 56.3075 62.8765C56.3075 62.7136 56.1619 62.568 55.9053 62.4652L55.4166 62.2768C54.7733 62.0284 54.5167 61.5397 54.5249 60.9828C54.5331 60.3404 55.1081 59.6288 55.9563 59.6288H57.6188V60.7854H56.2902C56.0846 60.7854 55.9135 60.931 55.9135 61.1112C55.9135 61.2568 55.9908 61.3851 56.2392 61.4715L56.8134 61.6853C57.4559 61.9165 57.7389 62.457 57.7389 63.0394C57.7471 63.6654 57.242 64.3424 56.1274 64.3424H54.4648V63.1858V63.185Z" fill="#0E4866"></path><path id="Vector_34" d="M58.295 61.4451V58.343H59.4607V59.628H60.4807V60.6571H59.4607V61.4451C59.4607 62.619 59.4097 63.1768 60.4807 63.1768V64.3424C58.244 64.3424 58.295 62.6026 58.295 61.4451Z" fill="#0E4866"></path><path id="Vector_35" d="M61.0791 58.6516C61.0791 58.3003 61.3621 58.0173 61.7306 58.0173C62.0992 58.0173 62.3731 58.3003 62.3731 58.6516C62.3731 59.0201 62.0819 59.3031 61.7306 59.3031C61.3621 59.3031 61.0791 59.0201 61.0791 58.6516ZM61.1482 59.628H62.3139V64.3417H61.1482V59.628Z" fill="#0E4866"></path><path id="Vector_36" d="M65.4673 64.4799C64.096 64.4799 62.9648 63.357 62.9648 61.9775C62.9648 60.5979 64.096 59.4923 65.4673 59.4923C65.8959 59.4923 66.3154 59.6124 66.6757 59.809L66.127 60.8208C65.9041 60.7007 65.7248 60.658 65.4673 60.658C64.6529 60.658 64.1305 61.1639 64.1305 61.9775C64.1305 62.791 64.6537 63.3142 65.4673 63.3142C65.7248 63.3142 65.9041 63.2714 66.127 63.1513L66.6757 64.1624C66.3154 64.3598 65.8959 64.4791 65.4673 64.4791V64.4799Z" fill="#0E4866"></path><path id="Vector_37" d="M66.8896 61.9766C66.8896 60.6053 67.9953 59.4915 69.3748 59.4915C70.7543 59.4915 71.86 60.6053 71.86 61.9766V64.3425H70.8317V63.9139C70.4031 64.2306 69.8799 64.4108 69.3748 64.4108C67.9944 64.4108 66.8896 63.3652 66.8896 61.9766ZM69.3748 63.3224C70.1892 63.3224 70.7033 62.8083 70.7033 61.9766C70.7033 61.1449 70.1892 60.6481 69.3748 60.6481C68.5604 60.6481 68.0463 61.1622 68.0463 61.9766C68.0463 62.791 68.5604 63.3224 69.3748 63.3224Z" fill="#0E4866"></path><path id="Vector_38" d="M77.3091 58.2065C79.0317 58.2065 80.4458 59.6116 80.4458 61.335C80.4458 63.0584 79.0317 64.4799 77.3091 64.4799C75.5865 64.4799 74.1807 63.074 74.1807 61.335C74.1807 59.596 75.5865 58.2065 77.3091 58.2065ZM79.2801 61.3342C79.2801 60.1685 78.4748 59.3714 77.3091 59.3714C76.1434 59.3714 75.3463 60.1685 75.3463 61.3342C75.3463 62.4998 76.1434 63.3134 77.3091 63.3134C78.4748 63.3134 79.2801 62.5163 79.2801 61.3342Z" fill="#0E4866"></path><path id="Vector_39" d="M83.436 64.4799C82.0647 64.4799 80.9336 63.357 80.9336 61.9775C80.9336 60.5979 82.0647 59.4923 83.436 59.4923C83.8646 59.4923 84.2841 59.6124 84.6445 59.809L84.0958 60.8208C83.8728 60.7007 83.6927 60.658 83.436 60.658C82.6216 60.658 82.0993 61.1639 82.0993 61.9775C82.0993 62.791 82.6224 63.3142 83.436 63.3142C83.6927 63.3142 83.8728 63.2714 84.0958 63.1513L84.6445 64.1624C84.2841 64.3598 83.8646 64.4791 83.436 64.4791V64.4799Z" fill="#0E4866"></path><path id="Vector_40" d="M86.3748 59.6279V62.2077C86.3748 63.0221 86.7006 63.296 87.2065 63.296C87.7552 63.296 88.0209 63.0385 88.0209 62.2077V59.6279H89.1865V62.2077C89.1865 63.6136 88.3039 64.4617 87.2073 64.4617C86.1872 64.4617 85.21 63.6308 85.21 62.2077V59.6279H86.3756H86.3748Z" fill="#0E4866"></path><path id="Vector_41" d="M91.0709 58.343V64.3424H89.9053V58.343H91.0709Z" fill="#0E4866"></path><path id="Vector_42" d="M91.6699 61.9766C91.6699 60.6053 92.7755 59.4915 94.1551 59.4915C95.5346 59.4915 96.6402 60.6053 96.6402 61.9766V64.3425H95.6119V63.9139C95.1834 64.2306 94.6602 64.4108 94.1551 64.4108C92.7747 64.4108 91.6699 63.3652 91.6699 61.9766ZM94.1559 63.3224C94.9703 63.3224 95.4844 62.8083 95.4844 61.9766C95.4844 61.1449 94.9703 60.6481 94.1559 60.6481C93.3415 60.6481 92.8274 61.1622 92.8274 61.9766C92.8274 62.791 93.3415 63.3224 94.1559 63.3224Z" fill="#0E4866"></path><path id="Vector_43" d="M97.1973 62.0284C97.1973 60.0912 98.6114 59.4915 99.6997 59.4915H99.9999V60.6571H99.6997C98.9198 60.6571 98.3629 60.8973 98.3629 62.0284V64.3425H97.1973V62.0284Z" fill="#0E4866"></path></g><path id="Vector_44" d="M19.6611 21.0889C19.6611 17.7177 22.3791 14.9784 25.7716 14.9784C29.1641 14.9784 31.8821 17.7177 31.8821 21.0889V26.9048H29.3533V25.851C28.2995 26.6309 27.0146 27.0735 25.7716 27.0735C22.3791 27.0735 19.6611 24.5028 19.6611 21.0889ZM25.7716 24.3966C27.773 24.3966 29.0374 23.1323 29.0374 21.0889C29.0374 19.0455 27.773 17.823 25.7716 17.823C23.7701 17.823 22.5058 19.0874 22.5058 21.0889C22.5058 23.0903 23.7701 24.3966 25.7716 24.3966Z" fill="#069AD8"></path><path id="Vector_45" d="M39.914 27.2421C36.5429 27.2421 33.7607 24.4814 33.7607 21.0889C33.7607 17.6963 36.542 14.9784 39.914 14.9784C40.9678 14.9784 42.0002 15.2729 42.8853 15.7582L41.537 18.2442C40.9892 17.9497 40.5466 17.8436 39.9148 17.8436C37.9125 17.8436 36.6276 19.0866 36.6276 21.0889C36.6276 23.0911 37.9125 24.3761 39.9148 24.3761C40.5466 24.3761 40.9892 24.2708 41.537 23.9754L42.8853 26.4614C42.0002 26.9459 40.9678 27.2413 39.914 27.2413V27.2421Z" fill="#069AD8"></path><path id="Vector_46" d="M53.8487 16.6655C53.0211 17.7917 52.609 19.6648 52.609 19.6648C51.7428 17.8262 49.664 17.8443 49.664 17.8443C47.6617 17.8443 46.3768 19.0873 46.3768 21.0896C46.3768 23.0919 47.6617 24.3768 49.664 24.3768C50.6125 24.3768 51.5791 24.1399 52.5267 22.7118V26.5066C52.5267 26.5066 51.496 27.2428 49.664 27.2428C46.2929 27.2428 43.5107 24.4821 43.5107 21.0896C43.5107 17.6971 46.292 14.9791 49.664 14.9791C52.2372 14.9791 53.8487 16.6663 53.8487 16.6663V16.6655Z" fill="#0E4866"></path><path id="Vector_47" d="M56.9696 26.0616V31.1191H54.125V21.0889C54.125 17.7177 56.8643 14.9784 60.2355 14.9784C63.6066 14.9784 66.3459 17.7177 66.3459 21.0889C66.3459 24.46 63.628 27.0735 60.2355 27.0735C59.1183 27.0735 57.9601 26.7156 56.9696 26.0616ZM60.2355 24.3966C62.2583 24.3966 63.5013 23.1323 63.5013 21.0889C63.5013 19.0455 62.2583 17.823 60.2355 17.823C58.2126 17.823 56.9696 19.0874 56.9696 21.0889C56.9696 23.0903 58.2554 24.3966 60.2355 24.3966Z" fill="#069AD8"></path><path id="Vector_48" d="M74.1885 14.9989C77.539 14.9989 80.3203 17.7169 80.3203 21.1094C80.3203 24.5019 77.539 27.2412 74.1885 27.2412C70.8379 27.2412 68.0566 24.5019 68.0566 21.1094C68.0566 17.7169 70.8165 14.9989 74.1885 14.9989ZM77.4543 21.1102C77.4543 19.1087 76.1685 17.8649 74.1885 17.8649C72.2084 17.8649 70.9227 19.1079 70.9227 21.1102C70.9227 23.1125 72.187 24.376 74.1885 24.376C76.1899 24.376 77.4543 23.133 77.4543 21.1102Z" fill="#069AD8"></path><path id="Vector_49" d="M25.793 10.9113C29.6963 5.38979 36.5759 1.9068 43.1158 0.649826C52.1096 -1.05548 62.0049 0.540417 69.4184 6.09149C71.22 7.46775 72.9154 9.02909 74.188 10.9113C60.9824 -0.0568103 39.0002 -0.0576325 25.793 10.9113Z" fill="#0E4866"></path><path id="Vector_50" d="M74.188 31.1396C69.9803 37.1596 62.3241 40.8096 55.1714 41.8042C46.649 43.0274 37.4652 41.2686 30.5412 36.0014C28.7445 34.6103 27.0565 33.0342 25.793 31.1396C39.0241 42.2772 60.9561 42.278 74.188 31.1396Z" fill="#0E4866"></path></g><defs><clipPath id="clip0_0_148"><rect width="100" height="66.1679" fill="white"></rect></clipPath></defs></svg>